<?xml version="1.0" encoding="UTF-8" standalone="no"?>
<!DOCTYPE svg PUBLIC "-//W3C//DTD SVG 1.1//EN" "http://www.w3.org/Graphics/SVG/1.1/DTD/svg11.dtd">
<svg width="100%" height="100%" viewBox="0 0 1446 1446" version="1.1" xmlns="http://www.w3.org/2000/svg" xmlns:xlink="http://www.w3.org/1999/xlink" xml:space="preserve" xmlns:serif="http://www.serif.com/" style="fill-rule:evenodd;clip-rule:evenodd;stroke-linejoin:round;stroke-miterlimit:2;">
    <g transform="matrix(1,0,0,1,1.38286e-06,8.69131e-06)">
        <g id="uuid-e10ca4f5-9b48-438a-8cbc-2505b26a3af1">
            <path d="M722.799,1445.71C323.669,1445.72 0,1122 0,722.885C-0.024,323.619 323.644,-0.061 722.872,0C1122.09,0.012 1445.73,323.656 1445.66,722.824C1445.69,1122 1122.03,1445.68 722.799,1445.71L722.799,1445.71Z" style="fill:white;fill-rule:nonzero;"/>
            <path d="M1292.88,353.321C1306.6,397.8 1314.15,444.89 1314.15,493.802C1314.15,651.549 1236.49,790.305 1118.6,877.207C913.417,1028.25 614.439,1028.49 201.579,1158.58C326.199,1307.53 513.437,1402.33 722.854,1402.33C1098.08,1402.33 1402.31,1098.08 1402.31,722.848C1402.31,586.603 1362.01,459.778 1292.88,353.321L1292.88,353.321Z" style="fill:rgb(4,100,169);fill-rule:nonzero;"/>
            <path d="M1130.33,179.09C1016.77,93.814 875.672,43.325 722.851,43.325C347.586,43.325 43.362,347.611 43.362,722.839C43.362,873.849 92.693,1013.33 175.987,1126.12C632.969,993.113 993.852,634.645 1130.33,179.09Z" style="fill:rgb(238,50,55);fill-rule:nonzero;"/>
        </g>
    </g>
</svg>
